<svg xmlns="http://www.w3.org/2000/svg" viewBox="0 0 6000 6000" role="img" aria-label="JCode icon">
  <defs>
    <linearGradient id="jGradient" x1="3650" y1="1250" x2="2450" y2="4620" gradientUnits="userSpaceOnUse">
      <stop offset="0" stop-color="#006DFF"/>
      <stop offset="0.48" stop-color="#078AF7"/>
      <stop offset="1" stop-color="#0CD1D7"/>
    </linearGradient>
    <linearGradient id="leftGradient" x1="2050" y1="2000" x2="830" y2="4050" gradientUnits="userSpaceOnUse">
      <stop offset="0" stop-color="#188EF7"/>
      <stop offset="1" stop-color="#0869FF"/>
    </linearGradient>
    <linearGradient id="rightGradient" x1="4200" y1="2050" x2="5350" y2="4050" gradientUnits="userSpaceOnUse">
      <stop offset="0" stop-color="#17B9E0"/>
      <stop offset="1" stop-color="#08C8D6"/>
    </linearGradient>
  </defs>
  <path
    d="M1880 2073 c-25 12 -97 63 -160 112 -63 48 -144 111 -180 139 -94 73 -581 450 -672 519 -100 77 -138 145 -138 246 0 124 27 160 267 354 65 52 273 221 461 376 343 280 344 281 391 281 63 0 76 -15 140 -163 52 -120 59 -153 41 -187 -7 -13 -733 -602 -809 -657 -3 -2 5 -10 16 -18 12 -8 192 -147 400 -307 208 -161 404 -313 435 -336 73 -55 98 -105 98 -192 0 -128 -61 -190 -186 -190 -41 1 -73 8 -104 23Z"
    fill="url(#leftGradient)"/>
  <path
    d="M4246 2148 c-21 13 -43 49 -87 147 -62 137 -70 180 -41 213 9 11 103 87 207 169 105 81 266 206 357 278 92 71 167 132 167 135 0 3 -98 82 -217 177 -648 514 -611 481 -612 528 0 37 82 266 103 285 29 28 77 34 118 17 19 -8 81 -53 139 -99 58 -46 286 -227 507 -401 221 -175 411 -331 423 -347 67 -94 65 -244 -4 -335 -21 -27 -857 -706 -946 -768 -31 -22 -77 -22 -114 1Z"
    fill="url(#rightGradient)"/>
  <path
    d="M3120 1305 c-20 25 -90 357 -79 377 5 10 13 18 17 18 17 0 405 70 409 74 12 12 -8 87 -155 596 -88 305 -215 746 -282 980 -69 239 -137 456 -156 496 -43 91 -110 166 -178 199 -99 49 -260 29 -417 -50 -35 -18 -54 -23 -66 -16 -9 5 -34 47 -54 93 -20 45 -65 148 -101 228 -35 80 -62 152 -60 161 4 21 147 88 286 134 361 121 670 66 883 -158 124 -131 204 -280 272 -507 22 -74 92 -311 156 -525 141 -473 306 -1023 385 -1280 173 -564 193 -637 179 -650 -8 -8 -153 -38 -334 -70 -176 -31 -395 -69 -487 -85 -192 -35 -201 -35 -218 -15Z"
    fill="url(#jGradient)"/>
</svg>
